<?xml version="1.0" standalone="no"?>
<!DOCTYPE svg PUBLIC "-//W3C//DTD SVG 20010904//EN"
 "http://www.w3.org/TR/2001/REC-SVG-20010904/DTD/svg10.dtd">
<svg version="1.0" xmlns="http://www.w3.org/2000/svg"
 width="320.000000pt" height="321.000000pt" viewBox="0 0 320.000000 321.000000"
 preserveAspectRatio="xMidYMid meet">

<g transform="translate(0.000000,321.000000) scale(0.100000,-0.100000)"
fill="#000000" stroke="none">
<path d="M1487 2074 c-168 -40 -304 -165 -361 -330 -35 -103 -33 -193 10 -341
l6 -23 -301 0 -301 0 0 -328 0 -328 26 -52 c28 -57 69 -96 129 -123 38 -18 89
-19 905 -19 816 0 867 1 905 19 60 27 101 66 129 123 l26 52 0 328 0 328 -300
0 c-165 0 -300 4 -300 9 0 5 7 28 15 52 9 24 19 78 22 119 18 237 -149 458
-389 515 -77 18 -145 18 -221 -1z m196 -288 c43 -17 94 -69 112 -113 19 -44
19 -123 1 -166 -17 -43 -69 -94 -113 -112 -44 -19 -123 -19 -166 -1 -43 17
-94 69 -112 113 -19 44 -19 123 -1 166 17 41 69 94 110 112 41 18 128 19 169
1z"/>
</g>
</svg>
